<svg xmlns="http://www.w3.org/2000/svg" xmlns:xlink="http://www.w3.org/1999/xlink">
  <symbol id="plus" viewBox="0 0 6 6">
    <path d="M0 2H6V4H0V2Z" />
    <path d="M2 6L2 8.74228e-08L4 0L4 6H2Z" />
  </symbol>
  <symbol id="plus-thin" viewBox="0 0 8 8">
    <path d="M0 3H8V5H0V3Z" />
    <path d="M3 8L3 8.74228e-08L5 0L5 8H3Z" />
  </symbol>
  <symbol id="plus-thinest" viewBox="0 0 10 10">
    <path d="M4 0H6V10H4V0Z" />
    <path d="M8.74228e-08 6L0 4L10 4V6L8.74228e-08 6Z" />
  </symbol>
  <symbol id="user" viewBox="0 0 24 24">
    <path fill-rule="evenodd" clip-rule="evenodd" d="M12 12C15.313 12 18 9.309 18 5.989C18 2.669 15.313 -0.0230026 12 -0.0230026C8.686 -0.0230026 6 2.669 6 5.989C6 9.309 8.686 12 12 12ZM12 1.982C14.209 1.982 16 3.776 16 5.989C16 8.202 14.209 9.996 12 9.996C9.791 9.996 8 8.203 8 5.99C8 3.777 9.791 1.982 12 1.982ZM15 14.004H8C3.581 14.004 1 17.594 1 22.018V24.022H3V22.018C3 18.704 4.691 16.008 8 16.008H15C18.309 16.008 21 18.703 21 22.018V24.022H23V22.018C23 17.594 19.418 14.004 15 14.004Z" />
  </symbol>
  <symbol id="shopping-bag" viewBox="0 0 24 24">
    <path d="M18.572 6C18.832 6.203 19.2 6.799 19.231 7.07V7.123L19.234 7.175L19.998 21.701C19.974 21.81 19.829 21.981 19.75 22L4.258 22.001C4.17 21.981 4.024 21.808 4.002 21.707L4.766 7.175L4.768 7.151V7.099C4.8 6.802 5.168 6.203 5.428 6H18.572ZM18.75 4H5.25C4.007 4 2.769 5.954 2.769 7.07L2 21.694C2 22.81 3.007 24 4.25 24H19.75C20.992 24 22 22.81 22 21.694L21.231 7.07C21.231 5.954 19.993 4 18.75 4Z" />
    <path d="M9 8V7.993V6.006V4.283C9 3.045 10.374 2 12 2C13.626 2 15 3.045 15 4.283V6.006V7.993V8H17V7.993V6.006V4.283C17 1.918 14.761 0 12 0C9.238 0 7 1.918 7 4.283V6.006V7.993V8H9Z" />
  </symbol>
  <symbol id="arrow-right-pixel" viewBox="0 0 6 9">
    <path d="M0 0H3V3H0V0Z" />
    <path d="M3 3H6V6H3V3Z" />
    <path d="M0 6H3V9H0V6Z" />
  </symbol>
  <symbol id="arrow-left-pixel-alt" viewBox="0 0 6 10">
    <path d="M6 8.74228e-08L6 2H4L4 0L6 8.74228e-08Z" />
    <path d="M4 2V4H2L2 2L4 2Z" />
    <path d="M2 4V6H0L8.74228e-08 4L2 4Z" />
    <path d="M4 6V8H2L2 6H4Z" />
    <path d="M6 8V10H4L4 8H6Z" />
  </symbol>
  <symbol id="arrow-right-pixel-alt" viewBox="0 0 3 5">
    <path d="M0 0H1V1H0V0Z" />
    <path d="M1 1H2V2H1V1Z" />
    <path d="M2 2H3V3H2V2Z" />
    <path d="M1 3H2V4H1V3Z" />
    <path d="M0 4H1V5H0V4Z" />
  </symbol>
  <symbol id="clock" viewBox="0 0 18 18">
    <path fill-rule="evenodd" clip-rule="evenodd" d="M9,18c-4.971,0-9-4.028-9-8.999C0,4.029,4.029,0,9,0 s9,4.029,9,9.001C18,13.972,13.971,18,9,18z M9,2.001c-3.866,0-7,3.134-7,7s3.134,7.001,7,7.001s7-3.135,7-7.001 S12.866,2.001,9,2.001z M13,11H9c-0.553,0-1-0.447-1-0.999v-4C8,5.448,8.447,5,9,5c0.552,0,1,0.448,1,1.001v3h3c0.552,0,1,0.447,1,1 C14,10.553,13.552,11,13,11z"/>
  </symbol>
  <symbol id="credit-card" viewBox="0 0 18 18">
    <path fill-rule="evenodd" clip-rule="evenodd" d="M16,16H2c-1.104,0-2-0.896-2-2V4c0-1.105,0.896-2 2-2h14 c1.104,0,2,0.895,2,2v10C18,15.104,17.104,16,16,16z M16,4H2v2h14V4z M16,7.999H2V14h14V7.999z M6,12H4v-2h2V12z M14,12H8v-2h6V12z" />
  </symbol>
  <symbol id="pin" viewBox="0 0 18 18">
    <path d="M9,2c2.757,0,5,2.406,5,5.364c0,4.071-3.635,7.799-4.993,8.551C7.67,15.149,4,11.33,4,7.364 C4,4.406,6.243,2,9,2 M9,0C5.134,0,2,3.297,2,7.364C2,12.863,7.418,18,9,18c1.581,0,7-5.035,7-10.636C16,3.297,12.866,0,9 0L9,0z"/>
    <path d="M9,6c0.551,0,1,0.449,1,1S9.551,8,9,8S8,7.551,8,7S8.449,6,9,6 M9,4C7.343,4,6,5.343,6,7 c0,1.656,1.343,3,3,3c1.657,0,3-1.344,3-3C12,5.343,10.657,4,9,4L9,4z"/>
  </symbol>
  <symbol id="gamer-mouse" viewBox="0 0 44 50">
    <path d="M27.717 3.038L36.892 9.919L34.323 34.212C33.184 41.89 24.904 48 22 48C19.125 48 10.876 41.887 9.677 34.205L7.108 9.919L16.282 3.038L20.21 10.894L22 14.472L23.789 10.894L27.717 3.038ZM27 0L22 10L17 0L5 9L7.693 34.463C9 43.031 17.944 50 22 50C26.055 50 35.063 43.031 36.307 34.463L39 9L27 0Z" />
    <path d="M37.819 17H36.821L36.459 21.475C37.193 24.838 38.67 29.689 41.596 34.343C39.96 36.992 34.987 44.149 28.628 44.923L26 47H27.518C37.203 47 44 34.285 44 34.285C38.518 26.25 37.819 17 37.819 17Z" />
    <path d="M6.182 17H7.18L7.541 21.475C6.807 24.838 5.331 29.689 2.404 34.343C4.04 36.992 9.015 44.149 15.373 44.923L18 47H16.484C6.796 47 0 34.285 0 34.285C5.483 26.25 6.182 17 6.182 17Z" />
    <path d="M23 24C23 24.552 22.552 25 22 25C21.448 25 21 24.552 21 24V20C21 19.448 21.448 19 22 19C22.552 19 23 19.448 23 20V24Z" />
  </symbol>
  <symbol id="headset" viewBox="0 0 44 50">
    <path d="M10 22V38H6C3.794 38 2 36.206 2 34V26C2 23.795 3.794 22 6 22H10ZM12 20H6C2.687 20 0 22.687 0 26V34C0 37.313 2.687 40 6 40H12V20Z" />
    <path d="M14 19.5V39.5H12V19.5H14ZM14 17.5H12C10.896 17.5 10 18.396 10 19.5V39.5C10 40.604 10.896 41.5 12 41.5H14C15.104 41.5 16 40.604 16 39.5V19.5C16 18.396 15.104 17.5 14 17.5Z" />
    <path d="M38 22C40.205 22 42 23.794 42 26V34C42 36.206 40.205 38 38 38H34V22H38ZM38 20H32V40H38C41.313 40 44 37.313 44 34V26C44 22.687 41.313 20 38 20Z" />
    <path d="M32 19.5V39.5H30V19.5H32ZM32 17.5H30C28.896 17.5 28 18.396 28 19.5V39.5C28 40.604 28.896 41.5 30 41.5H32C33.104 41.5 34 40.604 34 39.5V19.5C34 18.396 33.104 17.5 32 17.5Z" />
    <path d="M22 46C22.551 46 23 46.448 23 47C23 47.552 22.551 48 22 48C21.449 48 21 47.552 21 47C21 46.448 21.449 46 22 46ZM22 44C20.344 44 19 45.343 19 47C19 48.657 20.344 50 22 50C23.657 50 25 48.657 25 47C25 45.343 23.657 44 22 44Z" />
    <path d="M37 42V46C37 47.103 36.103 48 35 48H22V50H35C37.209 50 39 48.209 39 46V42H37Z" />
    <path d="M4 21.504V20C4 10.075 12.075 2 22 2C31.925 2 40 10.075 40 20V21.746L42 23.238V20C42 8.954 33.046 0 22 0C10.954 0 2 8.954 2 20V22.792L4 21.504Z" />
    <path d="M4 21.504V20C4 7.01 17.777 6 22 6C26.223 6 40 7.01 40 20V21.746L42 23.238V20C42 8.954 33.046 4 22 4C10.954 4 2 8.954 2 20V22.792L4 21.504Z" />
  </symbol>
  <symbol id="keyboard" viewBox="0 0 44 50">
    <path d="M33.416 16L42 22.22V44.15V48H33.824L30.378 44.58L29.793 44H28.969H15.094H14.283L13.701 44.564L10.158 48H2V44.331V22.22L10.584 16H33.416ZM34.064 14H9.936L0 21.2V44.331V50H10.969L15.094 46H28.969L33 50H44V44.15V21.2L34.064 14Z" />
    <path fill-rule="evenodd" clip-rule="evenodd" d="M21 32.004H19V34.004H21V32.004ZM17 32.004H15V34.004H17V32.004ZM11 34.004H13V32.004H11V34.004ZM7 34.004H9V32.004H7V34.004ZM35 34.004H37V32.004H35V34.004ZM31 34.004H33V32.004H31V34.004ZM29 32.004H27V34.004H29V32.004ZM25 32.004H23V34.004H25V32.004ZM21 28.002H19V30.003H21V28.002ZM17 28.002H15V30.003H17V28.002ZM11 30.003H13V28.002H11V30.003ZM7 30.003H9V28.002H7V30.003ZM35 30.003H37V28.002H35V30.003ZM31 30.003H33V28.002H31V30.003ZM29 28.002H27V30.003H29V28.002ZM25 28.002H23V30.003H25V28.002ZM21 24.001H19V26.002H21V24.001ZM17 24.001H15V26.002H17V24.001ZM11 26.002H13V24.001H11V26.002ZM7 26.002H9V24.001H7V26.002ZM35 24.001V26.002H37V24.001H35ZM31 26.002H33V24.001H31V26.002ZM29 24.001H27V26.002H29V24.001ZM25 24.001H23V26.002H25V24.001ZM21 20H19V22H21V20ZM17 20H15V22H17V20ZM29 20H27V22H29V20ZM25 20H23V22H25V20ZM14.997 40H29.004V38.011H14.997V40Z" />
    <path d="M23 12H21V14H23V12Z" />
    <path d="M33 0H12V2H33C34.654 2 36 3.346 36 5C36 6.654 34.654 8 33 8H30V10H33C35.762 10 38 7.761 38 5C38 2.239 35.762 0 33 0Z" />
    <path d="M31 8H25C22.791 8 21 9.791 21 12H23C23 10.897 23.897 10 25 10H31V8Z" />
  </symbol>
  <symbol id="screen" viewBox="0 0 44 50">
    <path fill-rule="evenodd" clip-rule="evenodd" d="M41.161 36H2.839C1.271 36 0 34.711 0 33.121V28.009V26V2.88C0 1.29 1.271 0 2.839 0H41.161C42.729 0 44 1.29 44 2.88V26V28.009V33.121C44 34.711 42.729 36 41.161 36ZM42 2H2V26H42V2ZM42 28.009H2V34.004H42V28.009ZM23 32.004H21V30.003H23V32.004Z" />
    <path d="M32.471 46L34.361 48H9.64L11.529 46H32.471ZM33.333 44H10.667L5 50H39L33.333 44Z" />
    <path d="M26.438 36L28.439 44H15.562L17.562 36H26.438ZM27.999 34H16L13 46H31L27.999 34Z" />
  </symbol>
  <symbol id="gaming-chair" viewBox="0 0 44 50">
    <path d="M38.224 44C39.235 44.188 41.639 45.391 42 46.086C41.992 46.938 41.87 47.595 41.751 48H2.249C2.129 47.594 2.008 46.938 2 46.086C2.36 45.391 4.765 44.19 5.775 44H38.224ZM38.322 42H5.677C4.894 42 0 43.79 0 46C0 48.209 0.635 50 1.419 50H42.58C43.364 50 44 48.209 44 46C44 43.79 39.106 42 38.322 42Z" />
    <path d="M21.596 2.002H21.646H21.672H21.698H21.709L21.984 2.007C26.412 2.085 27.891 2.368 28.381 2.532C28.588 2.914 28.639 3.75 28.67 4.274C28.692 4.637 28.713 4.98 28.767 5.315C28.775 5.367 29.611 10.538 30.776 11.898C31.502 12.744 33.613 14.692 34.481 15.425C34.816 15.709 35.193 15.956 35.592 16.217C36.011 16.492 36.883 17.064 36.999 17.318C37.152 18.264 36.633 20.188 36.129 22.048L36.013 22.479C35.245 25.333 34.866 27.201 35.99 32.418C36.161 33.213 36.387 34.09 36.628 35.018C37.183 37.165 37.844 39.725 37.977 42H6.024C6.155 39.727 6.814 37.169 7.365 35.023C7.605 34.092 7.831 33.213 8.002 32.416C9.106 27.261 8.719 25.308 7.996 22.549L7.981 22.491L7.789 21.763C7.326 20.016 6.846 18.209 6.98 17.362C7.109 17.067 7.984 16.496 8.405 16.222C8.808 15.959 9.188 15.711 9.526 15.427C10.394 14.695 12.51 12.748 13.239 11.899C14.362 10.592 15.139 5.85 15.224 5.313C15.277 4.98 15.298 4.636 15.32 4.273C15.352 3.744 15.403 2.896 15.615 2.521C16.055 2.364 17.381 2.091 21.325 2.009L21.596 2.002ZM22.019 0C22.019 0 21.887 0 21.67 0.003C21.43 0 21.284 0 21.284 0V0.01C19.537 0.046 15.129 0.145 14.278 1C13.209 2.075 13.407 4.002 13.249 5C13.091 5.998 12.315 9.904 11.722 10.596C11.129 11.288 9.148 13.13 8.237 13.898C7.326 14.667 5.255 15.54 5.017 16.999C4.78 18.458 5.413 20.58 6.046 22.999C6.679 25.417 7.115 27.007 6.046 31.998C5.364 35.18 3.666 40.08 4.058 44H39.942C40.333 40.08 38.629 35.178 37.944 31.997C36.871 27.014 37.283 25.455 37.944 22.998C38.594 20.584 39.21 18.457 38.973 16.998C38.736 15.539 36.68 14.666 35.771 13.897C34.863 13.129 32.886 11.287 32.293 10.595C31.7 9.903 30.9 5.998 30.741 5C30.583 4.002 30.779 2.075 29.712 1C28.853 0.134 23.9 0.041 22.019 0.008V0Z" />
    <path d="M22 33L15 29V31L22 35L29 31V29L22 33Z" />
    <path d="M22 27L15 23V25L22 29L29 25V23L22 27Z" />
    <path d="M22 21L15 17V19L22 23L29 19V17L22 21Z" />
  </symbol>
  <symbol id="mousepad-mouse" viewBox="0 0 44 50">
    <path d="M13 30L14.434 42.515C15.031 46.656 17.821 50 22 50C26.178 50 29.031 46.812 29.565 42.515L31 30L22 25.996L13 30ZM27.581 42.268C27.147 45.75 24.957 48 22 48C18.503 48 16.809 44.913 16.417 42.257L15.154 31.23L22 28.186L28.846 31.231L27.581 42.268Z" />
    <path d="M40 0H4C1.791 0 0 1.791 0 4V36C0 38.209 1.791 40 4 40H11V38H4C2.897 38 2 37.103 2 36V4C2 2.897 2.897 2 4 2H28.586L42 15.414V36C42 37.103 41.103 38 40 38H33V40H40C42.209 40 44 38.209 44 36V4C44 1.791 42.209 0 40 0ZM31.415 2H40C41.103 2 42 2.897 42 4V12.585L31.415 2Z" />
    <path d="M21 32.969V35.032C21 35.566 21.434 36 21.969 36H22.032C22.566 36 23 35.566 23 35.031V32.968C23 32.434 22.566 32 22.031 32H21.968C21.434 32 21 32.434 21 32.969Z" />
  </symbol>
  <symbol id="joystick" viewBox="0 0 50 50">
    <path fill-rule="evenodd" clip-rule="evenodd" d="M29 13C30.104 13 31 13.896 31 15V15.999C32.585 15.302 34.911 14 36.995 14C42.11 14 44.528 19.081 46.137 22.542C48.824 28.323 51.731 39.182 48.728 45.402C47.351 48.256 45.178 49.331 43.599 49.726C42.876 49.908 42.167 50 41.49 50C38.066 50 36.152 47.762 34.885 46.28C33.407 44.552 32.541 44.233 27.999 43.998H26C25.777 43.998 25.543 43.997 25.321 43.997C25.21 43.997 25.102 43.997 25 43.998C24.897 43.997 24.79 43.997 24.678 43.997C24.456 43.997 24.223 43.998 24 43.998H22C17.453 44.236 16.611 44.429 15.132 46.176C13.863 47.675 11.946 49.941 8.518 49.941C7.841 49.941 7.13 49.847 6.408 49.664C4.826 49.264 2.65 48.177 1.272 45.289C-1.733 38.995 1.178 28.008 3.867 22.159C5.479 18.656 7.883 14 13.004 14C15.09 14 17.413 15.294 19 15.999V15C19 13.896 19.896 13 21 13H24V12.969C24 10.225 26.225 8 28.969 8H30H35H39.031C40.668 8 42 6.668 42 5.031V5V0H44V5V5.031C44 7.775 41.775 10 39.031 10H35H30H28.969C27.332 10 26 11.331 26 12.969V13H29ZM18.192 17.828C17.907 17.702 17.602 17.558 17.28 17.407C15.948 16.78 14.289 16 13.004 16C9.587 16 7.67 18.676 5.685 22.994C3.25 28.291 0.388 38.793 3.078 44.427C3.918 46.186 5.203 47.295 6.9 47.725C7.465 47.869 8.01 47.941 8.52 47.941C11.02 47.941 12.454 46.247 13.605 44.886C15.671 42.446 17.349 42.24 21.897 42.001L21.949 41.998H22.001H24.001L24.335 41.997H24.679L25.02 41.998L25.322 41.997H25.667L26 41.998H27.999H28.051L28.103 42.001C32.84 42.246 34.408 42.645 36.405 44.98C37.557 46.326 38.988 48 41.49 48C42.003 48 42.549 47.929 43.111 47.787C44.806 47.362 46.09 46.267 46.925 44.533C49.608 38.977 46.752 28.613 44.322 23.385C42.515 19.494 40.593 16 36.995 16C35.726 16 34.081 16.771 32.759 17.392C32.419 17.551 32.099 17.702 31.804 17.83C30.82 18.262 29.704 19.036 28.809 19.657C27.564 20.522 26.877 20.999 26 20.999H24C23.102 20.999 22.402 20.513 21.131 19.629C20.253 19.018 19.16 18.258 18.192 17.828ZM21 15V17.126C22.4 18.037 23.601 19 24 19C24.583 19 26 19 26 19C26.377 19 27.59 18.029 29 17.118V15H21ZM24 38C24 38.553 23.552 39 23 39H21C20.448 39 20 38.553 20 38C20 37.447 20.448 37 21 37H23C23.552 37 24 37.447 24 38ZM17 36H11V33H8V27H11V24H17V27H20V33H17V36ZM18 31V29H15V26H13V29H10V31H13V34H15V31H18ZM27 37H29C29.553 37 30 37.447 30 38C30 38.553 29.553 39 29 39H27C26.447 39 26 38.553 26 38C26 37.447 26.447 37 27 37ZM28 27H34V33H28V27ZM30 31H32V29H30V31ZM42 33H36V27H42V33ZM40 29H38V31H40V29Z" />
  </symbol>
  <symbol id="award" viewBox="0 0 50 50">
    <path d="M32.051 23.919L47 0H33L25 12.8L17 0H3L17.949 23.919C13.797 26.348 11 30.842 11 36C11 43.732 17.268 50 25 50C32.732 50 39 43.732 39 36C39 30.842 36.203 26.348 32.051 23.919ZM43.392 2L30.892 22H27.25L39.75 2H43.392ZM34.055 2H37.75L25.25 22H21.608L34.055 2ZM15.946 2L23.831 14.671L22 17.6L12.25 2H15.946ZM6.608 2H10.25L21 19.199L19.25 22H19.108L6.608 2ZM25 48C18.383 48 13 42.617 13 36C13 29.383 18.383 24 25 24C31.617 24 37 29.383 37 36C37 42.617 31.617 48 25 48ZM25.001 27C20.029 27 16 31.029 16 36C16 40.971 20.029 45 25.001 45C29.971 45 34.001 40.971 34.001 36C34.001 31.029 29.971 27 25.001 27ZM25.001 43C21.141 43 18 39.859 18 36C18 32.141 21.141 29 25.001 29C28.86 29 32.001 32.141 32.001 36C32.001 39.859 28.86 43 25.001 43Z" />
  </symbol>
  <symbol id="mailbox" viewBox="0 0 50 50">
    <path fill-rule="evenodd" clip-rule="evenodd" d="M42 43V50H40V43H34V50H32V43H30H28H22H20H0V20C0 13.925 4.925 9 11 9H32V6V0H34H44V3V6H34V9H39C45.075 9 50 13.925 50 20V43H42ZM2 20V41H20V20C20 15.037 15.963 11 11 11C6.037 11 2 15.037 2 20ZM42 4V2H34V4H42ZM48 20C48 15.037 43.963 11 39 11H34V16H32V11H17.313C20.145 12.99 22 16.275 22 20V41H28H30H39H48V20ZM15 36H7C6.447 36 6 35.553 6 35C6 34.447 6.447 34 7 34H15C15.552 34 16 34.447 16 35C16 35.553 15.552 36 15 36Z" />
  </symbol>
  <symbol id="grid-3" viewBox="0 0 30 30">
    <path fill-rule="evenodd" clip-rule="evenodd" d="M6 2H2V6H6V2ZM0 0V8H8V0H0Z" />
    <path fill-rule="evenodd" clip-rule="evenodd" d="M6 13H2V17H6V13ZM0 11V19H8V11H0Z" />
    <path fill-rule="evenodd" clip-rule="evenodd" d="M6 24H2V28H6V24ZM0 22V30H8V22H0Z" />
    <path fill-rule="evenodd" clip-rule="evenodd" d="M17 2H13V6H17V2ZM11 0V8H19V0H11Z" />
    <path fill-rule="evenodd" clip-rule="evenodd" d="M17 13H13V17H17V13ZM11 11V19H19V11H11Z" />
    <path fill-rule="evenodd" clip-rule="evenodd" d="M17 24H13V28H17V24ZM11 22V30H19V22H11Z" />
    <path fill-rule="evenodd" clip-rule="evenodd" d="M28 2H24V6H28V2ZM22 0V8H30V0H22Z" />
    <path fill-rule="evenodd" clip-rule="evenodd" d="M28 13H24V17H28V13ZM22 11V19H30V11H22Z" />
    <path fill-rule="evenodd" clip-rule="evenodd" d="M28 24H24V28H28V24ZM22 22V30H30V22H22Z" />
  </symbol>
  <symbol id="grid-4" viewBox="0 0 30 30">
    <path fill-rule="evenodd" clip-rule="evenodd" d="M4 2H2V4H4V2ZM0 0V6H6V0H0Z" />
    <path fill-rule="evenodd" clip-rule="evenodd" d="M4 10H2V12H4V10ZM0 8V14H6V8H0Z" />
    <path fill-rule="evenodd" clip-rule="evenodd" d="M4 18H2V20H4V18ZM0 16V22H6V16H0Z" />
    <path fill-rule="evenodd" clip-rule="evenodd" d="M4 26H2V28H4V26ZM0 24V30H6V24H0Z" />
    <path fill-rule="evenodd" clip-rule="evenodd" d="M12 2H10V4H12V2ZM8 0V6H14V0H8Z" />
    <path fill-rule="evenodd" clip-rule="evenodd" d="M12 10H10V12H12V10ZM8 8V14H14V8H8Z" />
    <path fill-rule="evenodd" clip-rule="evenodd" d="M12 18H10V20H12V18ZM8 16V22H14V16H8Z" />
    <path fill-rule="evenodd" clip-rule="evenodd" d="M12 26H10V28H12V26ZM8 24V30H14V24H8Z" />
    <path fill-rule="evenodd" clip-rule="evenodd" d="M20 2H18V4H20V2ZM16 0V6H22V0H16Z" />
    <path fill-rule="evenodd" clip-rule="evenodd" d="M28 2H26V4H28V2ZM24 0V6H30V0H24Z" />
    <path fill-rule="evenodd" clip-rule="evenodd" d="M28 10H26V12H28V10ZM24 8V14H30V8H24Z" />
    <path fill-rule="evenodd" clip-rule="evenodd" d="M28 18H26V20H28V18ZM24 16V22H30V16H24Z" />
    <path fill-rule="evenodd" clip-rule="evenodd" d="M28 26H26V28H28V26ZM24 24V30H30V24H24Z" />
    <path fill-rule="evenodd" clip-rule="evenodd" d="M20 10H18V12H20V10ZM16 8V14H22V8H16Z" />
    <path fill-rule="evenodd" clip-rule="evenodd" d="M20 18H18V20H20V18ZM16 16V22H22V16H16Z" />
    <path fill-rule="evenodd" clip-rule="evenodd" d="M20 26H18V28H20V26ZM16 24V30H22V24H16Z" />
  </symbol>
  <symbol id="filter" viewBox="0 0 30 30">
    <path fill-rule="evenodd" clip-rule="evenodd" d="M8 2H4V6H8V2ZM2 0V8H10V0H2Z" />
    <path fill-rule="evenodd" clip-rule="evenodd" d="M17 13H13V17H17V13ZM11 11V19H19V11H11Z" />
    <path fill-rule="evenodd" clip-rule="evenodd" d="M26 24H22V28H26V24ZM20 22V30H28V22H20Z" />
    <path d="M10 3H30V5H10V3Z" />
    <path d="M0 25H20V27H0V25Z" />
    <path d="M0 3H2V5H0V3Z" />
    <path d="M28 25H30V27H28V25Z" />
    <path d="M19 14H30V16H19V14Z" />
    <path d="M0 14H11V16H0V14Z" />
  </symbol>
  <symbol id="close" viewBox="0 0 10 10">
    <path d="M0 0H2V2H0V0Z" />
    <path d="M2 2H4V4H2V2Z" />
    <path d="M4 4H6V6H4V4Z" />
    <path d="M6 6H8V8H6V6Z" />
    <path d="M8 8H10V10H8V8Z" />
    <path d="M2 6H4V8H2V6Z" />
    <path d="M0 8H2V10H0V8Z" />
    <path d="M6 2H8V4H6V2Z" />
    <path d="M8 0H10V2H8V0Z" />
  </symbol>
  <symbol id="star" viewBox="0 0 24 24">
    <path d="M12 .587l3.668 7.568 8.332 1.151-6.064 5.828 1.48 8.279-7.416-3.967-7.417 3.967 1.481-8.279-6.064-5.828 8.332-1.151z"/>
  </symbol>
</svg>
